<svg xmlns="http://www.w3.org/2000/svg" viewBox="0 0 49.45 49.46"><g data-name="Layer 2"><g data-name="Layer 1"><path fill="#ffc107" d="M28.78 0a10.62 10.62 0 1 0 10.63 10.62A10.64 10.64 0 0 0 28.78 0Zm.77 15.28v1.14a1 1 0 0 1-1.94 0v-1.13A4 4 0 0 1 25.86 14a1 1 0 0 1 .14-1.32 1 1 0 0 1 1.36.12 1.73 1.73 0 0 0 1.25.73 1 1 0 0 0 0-1.94 2.9 2.9 0 0 1-1-5.62V4.83a1 1 0 0 1 1.94 0V6a3.68 3.68 0 0 1 1.45.84 1 1 0 1 1-1.35 1.39 1.53 1.53 0 0 0-1-.51 1 1 0 1 0 0 1.94 2.9 2.9 0 0 1 1 5.62Z"/><path fill="#37474f" d="m17.17 44.57-4.68 4.61a1 1 0 0 1-1.36 0L.28 38.25a1 1 0 0 1 0-1.36l4.59-4.61a2.88 2.88 0 0 1 2.58-.8l1.68 1L16.7 40l1.24 1.86a2.91 2.91 0 0 1-.77 2.71Z"/><path fill="none" d="M37.82 30.14A3.87 3.87 0 0 1 34 34h-7.93a1 1 0 0 1 0-1.94H34a1.93 1.93 0 0 0 1.93-1.93Z"/><path fill="#fec9a3" d="M48.53 26.86c-9.27 11.08-8.69 10.4-8.76 10.47a8.66 8.66 0 0 1-6.06 2.46H20.87a2.88 2.88 0 0 0-2 .81l-1 1c0 .1.06.19.08.29L16.7 40l-7.56-7.56-1.68-1a11.94 11.94 0 0 1 10.89-6.14 12.32 12.32 0 0 1 4.83 1H34a3.83 3.83 0 0 1 2.22.71 3.57 3.57 0 0 1 .78.72l.35-.36 5.35-5.51a3.87 3.87 0 0 1 5.88 5Z"/><path fill="#f7bb92" d="M34 34h-7.93a1 1 0 0 1 0-1.94H34c2.28-1.44 1.93-4 2.22-5.08a3.57 3.57 0 0 1 .78.72l.35-.36c.34 1.93-.5 6.66-3.35 6.66Z"/><path fill="#37474f" d="M31.48 12.56a2.9 2.9 0 0 1-1.93 2.72v1.14a1 1 0 0 1-1.94 0v-1.13A4 4 0 0 1 25.86 14a1 1 0 0 1 .14-1.32 1 1 0 0 1 1.36.12 1.73 1.73 0 0 0 1.25.73 1 1 0 0 0 0-1.94 2.9 2.9 0 0 1-1-5.62V4.83a1 1 0 0 1 1.94 0V6a3.68 3.68 0 0 1 1.45.84 1 1 0 1 1-1.35 1.39 1.53 1.53 0 0 0-1-.51 1 1 0 1 0 0 1.94 2.89 2.89 0 0 1 2.83 2.9Z"/><path fill="none" d="M17.94 41.87"/></g></g></svg>